<svg xmlns="http://www.w3.org/2000/svg" xmlns:xlink="http://www.w3.org/1999/xlink" viewBox="0 0 256.000 128.000">
    <path d="M 116.691 22.207 L 120.865 22.826 L 124.958 23.852 L 128.931 25.273 L 132.746 27.077 L 136.365 29.247 L 139.755 31.761 L 142.881 34.594 L 145.715 37.721 L 146.269 38.468 L 146.467 38.321 L 149.666 36.404 L 153.037 34.810 L 156.548 33.553 L 160.166 32.647 L 163.854 32.100 L 167.579 31.917 L 171.304 32.100 L 174.993 32.647 L 178.610 33.553 L 182.121 34.810 L 185.492 36.404 L 188.691 38.321 L 191.686 40.543 L 194.449 43.047 L 196.954 45.810 L 199.175 48.805 L 201.092 52.004 L 202.687 55.375 L 203.943 58.886 L 204.849 62.504 L 205.396 66.192 L 205.579 69.917 L 205.396 73.642 L 204.915 76.886 L 205.466 76.689 L 206.989 76.307 L 208.542 76.077 L 210.110 76.000 L 211.679 76.077 L 213.232 76.307 L 214.755 76.689 L 216.233 77.218 L 217.653 77.889 L 219.000 78.696 L 220.261 79.632 L 221.424 80.686 L 222.479 81.850 L 223.414 83.111 L 224.221 84.458 L 224.892 85.877 L 225.421 87.355 L 225.803 88.879 L 226.033 90.432 L 226.110 92.000 L 226.033 93.568 L 225.803 95.121 L 225.421 96.645 L 224.892 98.123 L 224.221 99.542 L 223.414 100.889 L 222.479 102.150 L 221.424 103.314 L 220.261 104.368 L 219.000 105.304 L 217.653 106.111 L 216.233 106.782 L 214.755 107.311 L 213.232 107.693 L 212.540 107.795 L 212.540 108.000 L 44.540 108.000 L 44.540 107.929 L 44.420 107.923 L 42.867 107.693 L 41.343 107.311 L 39.865 106.782 L 38.446 106.111 L 37.099 105.304 L 35.838 104.368 L 34.674 103.314 L 33.620 102.150 L 32.684 100.889 L 31.877 99.542 L 31.206 98.123 L 30.677 96.645 L 30.295 95.121 L 30.065 93.568 L 29.988 92.000 L 30.065 90.432 L 30.295 88.879 L 30.677 87.355 L 31.206 85.877 L 31.877 84.458 L 32.684 83.111 L 33.620 81.850 L 34.674 80.686 L 35.838 79.632 L 37.099 78.696 L 38.446 77.889 L 39.186 77.539 L 39.110 76.000 L 39.264 72.863 L 39.725 69.757 L 40.488 66.711 L 41.546 63.754 L 42.889 60.915 L 44.503 58.222 L 46.374 55.699 L 48.483 53.373 L 50.810 51.264 L 53.332 49.393 L 56.026 47.779 L 58.865 46.436 L 61.821 45.378 L 64.868 44.615 L 67.974 44.154 L 71.110 44.000 L 74.247 44.154 L 74.845 44.243 L 76.723 41.110 L 79.236 37.721 L 82.070 34.594 L 85.197 31.761 L 88.586 29.247 L 92.206 27.077 L 96.020 25.273 L 99.994 23.852 L 104.087 22.826 L 108.261 22.207 L 112.476 22.000 Z" fill="#ffffff" fill-opacity="1.000" fill-rule="evenodd" />
</svg>